<?xml version="1.0" standalone="no"?>
<svg xmlns:xlink="http://www.w3.org/1999/xlink" id="wave" style="transform:rotate(180deg); transition: 0.3s" viewBox="0 0 1440 250" version="1.1" xmlns="http://www.w3.org/2000/svg"><defs><linearGradient id="sw-gradient-0" x1="0" x2="0" y1="1" y2="0"><stop stop-color="rgba(243, 106, 62, 1)" offset="0%"/><stop stop-color="rgba(255, 179, 11, 1)" offset="100%"/></linearGradient></defs><path style="transform:translate(0, 0px); opacity:1" fill="url(#sw-gradient-0)" d="M0,0L80,16.7C160,33,320,67,480,75C640,83,800,67,960,83.3C1120,100,1280,150,1440,179.2C1600,208,1760,217,1920,208.3C2080,200,2240,175,2400,175C2560,175,2720,200,2880,187.5C3040,175,3200,125,3360,108.3C3520,92,3680,108,3840,108.3C4000,108,4160,92,4320,95.8C4480,100,4640,125,4800,133.3C4960,142,5120,133,5280,116.7C5440,100,5600,75,5760,75C5920,75,6080,100,6240,120.8C6400,142,6560,158,6720,137.5C6880,117,7040,58,7200,62.5C7360,67,7520,133,7680,137.5C7840,142,8000,83,8160,87.5C8320,92,8480,158,8640,170.8C8800,183,8960,142,9120,120.8C9280,100,9440,100,9600,87.5C9760,75,9920,50,10080,62.5C10240,75,10400,125,10560,120.8C10720,117,10880,58,11040,29.2C11200,0,11360,0,11440,0L11520,0L11520,250L11440,250C11360,250,11200,250,11040,250C10880,250,10720,250,10560,250C10400,250,10240,250,10080,250C9920,250,9760,250,9600,250C9440,250,9280,250,9120,250C8960,250,8800,250,8640,250C8480,250,8320,250,8160,250C8000,250,7840,250,7680,250C7520,250,7360,250,7200,250C7040,250,6880,250,6720,250C6560,250,6400,250,6240,250C6080,250,5920,250,5760,250C5600,250,5440,250,5280,250C5120,250,4960,250,4800,250C4640,250,4480,250,4320,250C4160,250,4000,250,3840,250C3680,250,3520,250,3360,250C3200,250,3040,250,2880,250C2720,250,2560,250,2400,250C2240,250,2080,250,1920,250C1760,250,1600,250,1440,250C1280,250,1120,250,960,250C800,250,640,250,480,250C320,250,160,250,80,250L0,250Z"/><defs><linearGradient id="sw-gradient-1" x1="0" x2="0" y1="1" y2="0"><stop stop-color="rgba(243, 106, 62, 1)" offset="0%"/><stop stop-color="rgba(255, 179, 11, 1)" offset="100%"/></linearGradient></defs><path style="transform:translate(0, 50px); opacity:0.9" fill="url(#sw-gradient-1)" d="M0,0L80,25C160,50,320,100,480,108.3C640,117,800,83,960,87.5C1120,92,1280,133,1440,145.8C1600,158,1760,142,1920,129.2C2080,117,2240,108,2400,87.5C2560,67,2720,33,2880,29.2C3040,25,3200,50,3360,50C3520,50,3680,25,3840,25C4000,25,4160,50,4320,62.5C4480,75,4640,75,4800,70.8C4960,67,5120,58,5280,66.7C5440,75,5600,100,5760,104.2C5920,108,6080,92,6240,79.2C6400,67,6560,58,6720,58.3C6880,58,7040,67,7200,83.3C7360,100,7520,125,7680,120.8C7840,117,8000,83,8160,91.7C8320,100,8480,150,8640,166.7C8800,183,8960,167,9120,162.5C9280,158,9440,167,9600,175C9760,183,9920,192,10080,183.3C10240,175,10400,150,10560,145.8C10720,142,10880,158,11040,137.5C11200,117,11360,58,11440,29.2L11520,0L11520,250L11440,250C11360,250,11200,250,11040,250C10880,250,10720,250,10560,250C10400,250,10240,250,10080,250C9920,250,9760,250,9600,250C9440,250,9280,250,9120,250C8960,250,8800,250,8640,250C8480,250,8320,250,8160,250C8000,250,7840,250,7680,250C7520,250,7360,250,7200,250C7040,250,6880,250,6720,250C6560,250,6400,250,6240,250C6080,250,5920,250,5760,250C5600,250,5440,250,5280,250C5120,250,4960,250,4800,250C4640,250,4480,250,4320,250C4160,250,4000,250,3840,250C3680,250,3520,250,3360,250C3200,250,3040,250,2880,250C2720,250,2560,250,2400,250C2240,250,2080,250,1920,250C1760,250,1600,250,1440,250C1280,250,1120,250,960,250C800,250,640,250,480,250C320,250,160,250,80,250L0,250Z"/><defs><linearGradient id="sw-gradient-2" x1="0" x2="0" y1="1" y2="0"><stop stop-color="rgba(243, 106, 62, 1)" offset="0%"/><stop stop-color="rgba(255, 179, 11, 1)" offset="100%"/></linearGradient></defs><path style="transform:translate(0, 100px); opacity:0.8" fill="url(#sw-gradient-2)" d="M0,175L80,145.8C160,117,320,58,480,66.7C640,75,800,150,960,166.7C1120,183,1280,142,1440,141.7C1600,142,1760,183,1920,170.8C2080,158,2240,92,2400,70.8C2560,50,2720,75,2880,100C3040,125,3200,150,3360,166.7C3520,183,3680,192,3840,179.2C4000,167,4160,133,4320,120.8C4480,108,4640,117,4800,100C4960,83,5120,42,5280,45.8C5440,50,5600,100,5760,137.5C5920,175,6080,200,6240,212.5C6400,225,6560,225,6720,212.5C6880,200,7040,175,7200,175C7360,175,7520,200,7680,175C7840,150,8000,75,8160,41.7C8320,8,8480,17,8640,29.2C8800,42,8960,58,9120,58.3C9280,58,9440,42,9600,41.7C9760,42,9920,58,10080,83.3C10240,108,10400,142,10560,158.3C10720,175,10880,175,11040,158.3C11200,142,11360,108,11440,91.7L11520,75L11520,250L11440,250C11360,250,11200,250,11040,250C10880,250,10720,250,10560,250C10400,250,10240,250,10080,250C9920,250,9760,250,9600,250C9440,250,9280,250,9120,250C8960,250,8800,250,8640,250C8480,250,8320,250,8160,250C8000,250,7840,250,7680,250C7520,250,7360,250,7200,250C7040,250,6880,250,6720,250C6560,250,6400,250,6240,250C6080,250,5920,250,5760,250C5600,250,5440,250,5280,250C5120,250,4960,250,4800,250C4640,250,4480,250,4320,250C4160,250,4000,250,3840,250C3680,250,3520,250,3360,250C3200,250,3040,250,2880,250C2720,250,2560,250,2400,250C2240,250,2080,250,1920,250C1760,250,1600,250,1440,250C1280,250,1120,250,960,250C800,250,640,250,480,250C320,250,160,250,80,250L0,250Z"/></svg>